<svg width="263" height="17" preserveAspectRatio="none" xmlns="http://www.w3.org/2000/svg"><path d="M231.373.112C201.906-.055 86.363.705 71.277 1.296 50.034 2.126 18.158-1.59 5.581 1.2c-.399.089-.903.22-1.335.651C2.37 3.727 1.892 3.47.622 5.001c-1.351 1.629-.185 3.736.534 5.46.718 1.725-.824 2.935.209 4.99.623 1.24 4.834 1.688 9.95 1.213 16.38-1.521 179.64.026 194.017-.484 15.248-.54 22.141.196 40.585.66 15.017.995 15.243-2.871 15.243-5.25 0-2.38 4.14-7.643 0-10.328C258.4-.528 231.683.11 231.373.112z" fill="#5CFFD7" fill-rule="evenodd"/></svg>